                <svg
                  xmlns="http://www.w3.org/2000/svg"
                  height="33"
                  width="118"
                  fill="none"
                  viewBox="0 0 118 33"
                  color="white"
                  class="h-9 w-full"
                >
                  <path
                    fill="white"
                    d="m88.709 9.276 4.619-1.573v-5.98c0-.47-.233-.792-.593-1.102C92.26.21 91.964.092 91.61 0h-9.242l.86.862V32.7h3.764V14.136l2.579-.862V32.7h3.759V9.147l-6.34 2.343V2.585h1.72v6.69h-.002Zm16.376-3.783v-3.77c0-.47-.252-.876-.756-1.215C103.825.17 103.217 0 102.507 0h-8.362l.86.862v12.41l6.322-2.237v19.081h-2.58v-3.793l-3.743 1.315v3.34c0 .471.252.876.756 1.214.504.339 1.112.509 1.822.509h4.923c.711 0 1.318-.17 1.823-.509.504-.338.756-.743.756-1.214V6.794l-6.338 2.17v-6.38h2.579v4.307l3.759-1.398h.001Zm12.366-2.909V0h-11.506l.86.862v30.116c0 .472.251.876.756 1.215.504.339 1.111.508 1.822.508h8.067v-2.584h-6.877V16.35l5.143-1.686.015-3.516-.015.005v-.006l-5.143 1.687V2.584h6.878ZM32.96.508C32.454.17 31.846 0 31.136 0h-8.358l.86.862V32.7h3.74V2.584h2.578v30.117h3.759V1.723c0-.47-.252-.876-.756-1.215Zm-11.9.035C20.624.18 20.05 0 19.34 0h-8.365l.86.862V32.7h3.758V16.35l2.58-.846V32.7h3.747V1.723c-.137-.425-.424-.818-.86-1.18Zm-2.889 2.04v9.405l-2.579.845V2.585h2.58v-.001ZM56.46.543C56.023.18 55.45 0 54.74 0h-8.366l.86.862V32.7h3.758V15.014l2.58-.845V32.7h3.748V1.723c-.138-.425-.425-.818-.86-1.18Zm-2.89 2.04v8.069l-2.578.845V2.585h2.579v-.001Zm-43.427 8.139V1.723c0-.47-.253-.876-.757-1.215C8.882.17 8.274 0 7.564 0H2.58C1.87 0 1.261.17.757.508.252.848 0 1.252 0 1.723v29.255c.138.425.424.819.86 1.18.435.362 1.008.543 1.72.543h4.984c.711 0 1.318-.17 1.822-.509.505-.338.757-.743.757-1.214v-9.763L6.367 22.46v7.674h-2.58V2.584h2.58v9.42l3.776-1.282ZM44.757.508C44.253.17 43.645 0 42.935 0h-8.358l.86.862V32.7h3.74V2.584h2.578v30.117h3.759V1.723c0-.47-.253-.876-.756-1.215h-.001ZM59.037 32.7V.863L58.177 0h4.628v27.898l2.58-.861V0h3.758v29.302l-10.106 3.399Zm22.47-30.116V0H70l.86.862v30.116c0 .472.251.876.756 1.215.504.339 1.111.508 1.822.508h8.067v-2.584H74.63V14.344l5.143-1.687.015-3.515-.015.005V9.14l-5.143 1.687V2.585h6.877Z"
                  ></path>
                </svg>